<?xml version="1.0" encoding="UTF-8"?>
<svg xmlns="http://www.w3.org/2000/svg" xmlns:xlink="http://www.w3.org/1999/xlink" width="224pt" height="256pt" viewBox="0 0 224 256" version="1.1">
<g id="surface1">
<path style=" stroke:none;fill-rule:nonzero;fill:rgb(0%,0%,0%);fill-opacity:1;" d="M 64 0 C 70.648438 0 76 5.351562 76 12 L 76 32 L 148 32 L 148 12 C 148 5.351562 153.351562 0 160 0 C 166.648438 0 172 5.351562 172 12 L 172 32 L 192 32 C 209.648438 32 224 46.351562 224 64 L 224 224 C 224 241.648438 209.648438 256 192 256 L 32 256 C 14.351562 256 0 241.648438 0 224 L 0 64 C 0 46.351562 14.351562 32 32 32 L 52 32 L 52 12 C 52 5.351562 57.351562 0 64 0 Z M 200 96 L 24 96 L 24 224 C 24 228.398438 27.601562 232 32 232 L 192 232 C 196.398438 232 200 228.398438 200 224 Z M 164.5 148.5 L 108.5 204.5 C 103.800781 209.199219 96.199219 209.199219 91.550781 204.5 L 59.550781 172.5 C 54.851562 167.800781 54.851562 160.199219 59.550781 155.550781 C 64.25 150.898438 71.851562 150.851562 76.5 155.550781 L 100 179.050781 L 147.5 131.550781 C 152.199219 126.851562 159.800781 126.851562 164.449219 131.550781 C 169.101562 136.25 169.148438 143.851562 164.449219 148.5 Z M 164.5 148.5 "/>
</g>
</svg>
