<?xml version="1.0" encoding="UTF-8"?>
<svg xmlns="http://www.w3.org/2000/svg" xmlns:xlink="http://www.w3.org/1999/xlink" width="288pt" height="256pt" viewBox="0 0 288 256" version="1.1">
<g id="surface1">
<path style=" stroke:none;fill-rule:nonzero;fill:rgb(0%,0%,0%);fill-opacity:1;" d="M 104 32 C 104 18.746094 114.746094 8 128 8 C 141.253906 8 152 18.746094 152 32 C 152 45.253906 141.253906 56 128 56 C 114.746094 56 104 45.253906 104 32 Z M 4.898438 107.398438 C 7.449219 101.300781 14.449219 98.398438 20.601562 100.949219 L 30.351562 105 L 41.800781 85.949219 C 49.949219 72.300781 64.648438 64 80.5 64 C 106.199219 64 129 80.449219 137.148438 104.851562 L 154.449219 156.699219 L 194.101562 173.25 L 211.199219 150.449219 C 214.398438 146.199219 219.5 143.800781 224.800781 144.050781 C 230.101562 144.300781 234.949219 147.25 237.699219 151.800781 L 285.699219 231.800781 C 288.648438 236.75 288.75 242.898438 285.898438 247.898438 C 283.050781 252.898438 277.75 256 272 256 L 144 256 C 138.449219 256 133.300781 253.148438 130.398438 248.398438 C 127.5 243.648438 127.199219 237.800781 129.699219 232.851562 L 137.699219 216.851562 C 140.398438 211.449219 145.949219 208 152 208 L 168 208 L 179.25 193 L 11.398438 123.101562 C 5.300781 120.550781 2.398438 113.550781 4.949219 107.398438 Z M 46.300781 153.300781 L 102.300781 177.300781 C 108.199219 179.800781 112 185.601562 112 192 L 112 240 C 112 248.851562 104.851562 256 96 256 C 87.148438 256 80 248.851562 80 240 L 80 202.550781 L 49.699219 189.550781 L 31.199219 245.050781 C 28.398438 253.449219 19.351562 257.949219 10.949219 255.148438 C 2.550781 252.351562 -1.949219 243.300781 0.800781 234.949219 L 30.300781 146.449219 Z M 46.300781 153.300781 "/>
</g>
</svg>
